<svg xmlns="http://www.w3.org/2000/svg" width="2000" height="2000" viewBox="0 0 1500 1500"><defs><clipPath id="a"><path d="M111 1241h170v86.797H111Zm0 0"/></clipPath><clipPath id="b"><path d="M37 243.297h605V558H37Zm0 0"/></clipPath><clipPath id="c"><path d="M0 172.145h681v450H0Zm0 0"/></clipPath><clipPath id="d"><path d="M70.5 172.145h539.297c38.937 0 70.5 31.562 70.5 70.5v309c0 38.933-31.563 70.5-70.5 70.5H70.5c-38.937 0-70.5-31.567-70.5-70.5v-309c0-38.938 31.563-70.5 70.5-70.5m0 0"/></clipPath><clipPath id="f"><path d="M0 .145h680.398v450H0Zm0 0"/></clipPath><clipPath id="g"><path d="M70.5.145h539.297c38.937 0 70.5 31.562 70.5 70.5v309c0 38.933-31.563 70.5-70.5 70.5H70.5c-38.937 0-70.5-31.567-70.5-70.5v-309C0 31.707 31.563.145 70.5.145m0 0"/></clipPath><clipPath id="e"><path d="M0 0h681v451H0z"/></clipPath><clipPath id="h"><path d="M199.137 190H554v381H199.137Zm0 0"/></clipPath><clipPath id="i"><path d="M199.137 172.145h600v600h-600Zm0 0"/></clipPath></defs><path fill="#fff" d="M-150-150h1800v1800H-150z"/><path fill="#fff" d="M-150-150h1800v1800H-150z"/><path fill="#74c66d" d="M556.07 1005.965v-104.66c0-19.598-15.883-35.48-35.476-35.48H358.109c-19.593 0-35.476 15.882-35.476 35.48v96.16c0 9.93 4.156 19.36 11.347 26.207a1055 1055 0 0 1 40.946 41.2c6.21 6.6 9.59 15.374 9.59 24.437q-.005 27.105-.004 54.199c0 19.597 15.883 35.488 35.48 35.488h100.61c19.59 0 35.472-15.887 35.472-35.48v-137.551Zm91.985 32.387v61.39c0 19.594 15.883 35.457 35.476 35.457H830.52c19.59 0 35.476-15.883 35.476-35.48v-61.39c0-19.599-15.887-35.485-35.476-35.485H683.53c-19.593 0-35.476 15.914-35.476 35.508m-493.62 215.519h82.546q1.5-.001 2.989.145 1.494.147 2.965.441 1.465.293 2.902.727a30.3 30.3 0 0 1 5.527 2.289 32 32 0 0 1 2.567 1.539 30 30 0 0 1 2.406 1.785q1.157.95 2.219 2.012a30 30 0 0 1 2.007 2.218c.637.77 1.231 1.575 1.786 2.403a31 31 0 0 1 1.539 2.57 30 30 0 0 1 1.281 2.707q.575 1.384 1.008 2.82a30.6 30.6 0 0 1 1.312 8.856v.008a30.3 30.3 0 0 1-.586 5.953 31 31 0 0 1-.726 2.902q-.434 1.437-1.008 2.82a30.55 30.55 0 0 1-13.805 15.235q-1.324.705-2.707 1.281c-.926.379-1.863.719-2.82 1.008q-1.437.434-2.902.726c-.98.196-1.97.34-2.965.442q-1.488.145-2.989.144h-82.546q-1.5 0-2.989-.144a32 32 0 0 1-2.965-.442 31 31 0 0 1-2.902-.726 32 32 0 0 1-2.82-1.008 32 32 0 0 1-2.707-1.281 30.7 30.7 0 0 1-7.191-5.336 30 30 0 0 1-2.008-2.219 30.3 30.3 0 0 1-4.605-7.68 30 30 0 0 1-1.009-2.82 31 31 0 0 1-.726-2.902 30.3 30.3 0 0 1-.586-5.953v-.008q0-1.5.144-2.988.147-1.495.442-2.965a30.6 30.6 0 0 1 1.734-5.723 30 30 0 0 1 1.281-2.707q.709-1.323 1.54-2.57a30 30 0 0 1 1.785-2.403c.632-.773 1.3-1.515 2.007-2.218a31 31 0 0 1 2.22-2.012 30 30 0 0 1 2.405-1.785 30.6 30.6 0 0 1 8.094-3.828q1.437-.435 2.902-.727a30.3 30.3 0 0 1 5.954-.586m0 0"/><path fill="#74c66d" d="M624.09 896.652v-48.691c0-19.598 15.883-35.48 35.476-35.48h365.871c19.594 0 35.477-15.915 35.477-35.512v-85.203c0-19.598 15.883-35.508 35.477-35.508h188.43c19.593 0 35.476 15.847 35.476 35.445v401.735c0 19.593-15.852 35.449-35.45 35.44-79.1 0-242.359-.007-314.367-.007-19.593 0-35.453-15.887-35.453-35.484V967.613c0-19.597-15.882-35.484-35.476-35.484H659.566c-19.593 0-35.476-15.883-35.476-35.48Zm734.7-577.058h-220.876c-19.59 0-35.473 15.886-35.473 35.48v196.719c0 19.598 15.883 35.484 35.473 35.484h220.875c19.594 0 35.477-15.886 35.477-35.484V355.047c0-19.594-15.883-35.453-35.477-35.453m0 0"/><path fill="#211715" d="M568.754 1005.965V917.91c0-14.887.93-29.719-7.79-42.84-10.734-16.148-27.679-21.925-46.171-21.925h-144.52c-12.89 0-25.363-.176-36.957 6.87-12.824 7.79-21.195 21.055-22.953 35.895-.527 4.457-.406 8.914-.406 13.403v51.777c0 12.082-.3 24.21 0 36.289.422 17.11 8.633 29.027 20.531 40.516a1035 1035 0 0 1 19.727 19.562c6.027 6.14 13.55 12.324 18.144 19.598 3.922 6.215 3.48 12.96 3.48 20v30.976c0 16.727-.163 31.98 10.766 45.684 9.13 11.45 22.868 17.64 37.399 17.969 3.207.074 6.426 0 9.637 0 30.187 0 60.433.562 90.617 0 26.816-.496 47.906-21.375 48.515-48.235.215-9.648 0-19.332 0-28.984v-108.5c0-16.328-25.363-16.352-25.363 0v123.582c0 9.176 1.418 19.758-4.387 27.57-7.988 10.75-20.718 9.196-32.441 9.196h-51.16c-11.676 0-23.379.214-35.059 0-8.14-.149-15.36-3.81-19.75-10.801-3.144-5.012-3.402-10.094-3.402-15.871v-27.102c0-16.71 1.996-34.406-7.477-49.172-4.62-7.203-11.246-13.23-17.168-19.332a1011 1011 0 0 0-18.707-18.797c-8.464-8.3-18.343-15.285-18.53-28.144-.06-4.09 0-8.18 0-12.27 0-27.808-.602-55.691 0-83.492.323-14.805 12.12-22.824 25.827-22.824H497.41c7.707 0 15.438-.176 23.14 0 9.09.203 17.438 5.293 21.087 13.816 1.816 4.246 1.761 8.516 1.761 12.985v100.648c0 16.324 25.364 16.352 25.364 0Zm66.617 32.387v35.46c0 9.481-.605 19.2.117 28.657 1.485 19.531 13.907 36.261 32.477 42.808 13.867 4.895 31.68 2.606 46.105 2.606 38.684 0 77.453.754 116.13 0 16.546-.32 31.421-8.149 40.687-21.926 6.73-10.008 7.789-21.418 7.789-33.055 0-18.957 1.328-38.398-.117-57.3-1.496-19.618-13.918-36.165-32.473-42.836-6.934-2.489-14.152-2.606-21.39-2.606h-126.22c-4.872 0-9.758-.09-14.63 0-16.538.313-31.429 8.176-40.687 21.945-5.195 7.727-7.555 17.02-7.789 26.247-.41 16.332 24.953 16.32 25.363 0 .325-12.66 10.086-22.559 22.797-22.825 3.192-.066 6.387 0 9.578 0h119.407c12.754 0 27.836-2.359 36.464 9.36 4.805 6.527 4.329 13.98 4.329 21.593v31.63c0 7.152.152 14.316 0 21.46-.239 11.114-7.938 20.903-19.172 22.762-3.88.645-8.29.188-12.188.188h-89.582c-15.554 0-31.113.05-46.672 0-7.48-.028-14.383-1.97-19.46-7.899-4.165-4.867-5.473-10.476-5.5-16.75-.036-9.164 0-18.328 0-27.492v-32.027c0-16.325-25.364-16.348-25.364 0m0 0"/><g clip-path="url(#a)"><path fill="#211715" d="M111.242 1284.383c0 20.828 15.664 39.367 36.266 42.543 8.394 1.293 17.187.66 25.648.66 21.219 0 42.496.488 63.707 0 20.164-.461 38.477-14.293 42.395-34.535 4.14-21.395-8.098-42.442-28.625-49.633-8.692-3.047-18.485-2.23-27.567-2.23H183.36c-9.597 0-19.222-.235-28.82 0-24.02.585-42.61 19.214-43.3 43.195-.47 16.332 24.89 16.316 25.363 0 .62-21.617 25.234-17.828 40.015-17.828 19.617 0 39.242-.14 58.856 0 9.222.062 17.664 5.324 19.148 15.054 1.676 10.996-6.887 20.274-17.719 20.606-17.601.543-35.304 0-52.914 0-15.023 0-47.394 5.672-47.394-17.832 0-16.324-25.36-16.352-25.36 0Zm0 0"/></g><path fill="#211715" d="M636.773 896.652v-42.039c0-5.988-.296-11.64 2.551-17.164 3.973-7.722 11.809-12.113 20.344-12.289 14.309-.289 28.66 0 42.973 0h294.464c17.938 0 38.922 2.617 54.57-7.797 12.352-8.218 20.04-21.183 21.63-35.875 1.742-16.129.297-33.125.297-49.351v-22.899c0-7.433-1.086-15.734.664-22.968 2.363-9.766 11.207-16.961 21.218-17.305 22.11-.754 44.368-.02 66.485-.02h102.238c6.863 0 13.75-.16 20.605 0 9.165.211 17.45 5.371 21.11 13.942 2.207 5.156 1.703 10.676 1.703 16.148v383.266c0 11.082.738 22.176-9.18 29.535-8.113 6.027-18.968 4.371-28.468 4.371H976.492c-10.293 0-19.441-1.336-25.375-10.8-2.847-4.548-3.379-9.333-3.394-14.509-.11-30.863 0-61.73 0-92.597 0-10.164.21-20.348 0-30.508-.555-26.73-21.465-47.723-48.196-48.332-19.16-.43-38.382 0-57.547 0-60.054 0-120.117.25-180.168 0-13.472-.055-24.671-8.566-25.03-22.797-.41-16.293-25.774-16.355-25.36 0 .676 26.824 21.68 47.668 48.5 48.164 6.95.129 13.91 0 20.86 0h199.136c6.492 0 13.004-.137 19.492 0 15.098.32 22.95 12.274 22.95 26.184v97.304c0 9.762-.758 19.88.292 29.606 1.586 14.676 9.274 27.652 21.61 35.86 11.027 7.34 23.27 7.788 36.008 7.788 100.664 0 201.34.493 302.003.008 14.012-.066 27.332-4.344 37.204-14.7 10.453-10.96 13.507-24.245 13.507-38.964V715.992c0-13.55 1.829-28.601-3.242-41.457-5.347-13.547-16.27-24.09-30.172-28.625-9.27-3.023-19.32-2.324-28.949-2.324h-151.848c-7.437 0-14.89-.164-22.324 0-13.242.289-26.27 5.426-35.277 15.351-11.016 12.133-12.93 26.004-12.93 41.782v49.449c0 8.918.258 17.894 0 26.809-.144 4.878-1.422 9.617-4.387 13.613-5.918 7.969-14.48 9.21-23.492 9.21H667.328c-7.914 0-15.664-.093-23.312 2.606-13.786 4.867-24.57 15.489-29.664 29.184-2.79 7.496-2.922 15.18-2.922 23.031v42.04c0 16.323 25.363 16.35 25.363 0ZM1358.79 306.91h-189.044c-10.078 0-20.156-.058-30.238 0-24.961.145-46.352 17.52-49.344 42.766-1.012 8.554-.406 17.437-.406 26.031v162.481c0 12.253-.438 23.96 5.23 35.39 9.121 18.395 27.727 26.379 47.309 26.379h201.453c10.152 0 20.898.82 30.61-2.605 15.007-5.293 27.023-17.782 31.019-33.317 1.86-7.23 1.566-14.71 1.566-22.101V369.09c0-14.707.297-29.13-8.773-41.66-9.317-12.864-23.52-20.118-39.383-20.52-16.328-.414-16.316 24.953 0 25.367 11.008.282 20.676 7.883 22.527 19 .86 5.153.27 10.934.27 16.164V531.77c0 11.472 2.55 25.484-5.504 34.91-7.207 8.441-16.965 7.914-26.855 7.914H1151.57c-7.129 0-15.957 1.093-22.636-1.766-12.325-5.281-13.817-16.8-13.817-28.371V358.305c0-13.774 7.914-25.696 22.836-26.028 7.027-.16 14.074 0 21.106 0h199.73c16.324 0 16.348-25.367 0-25.367m0 0"/><path fill="#bd957a" d="M50.32 255.98v289.211h578.34v-289.21zm0 0"/><g clip-path="url(#b)"><path fill="#211715" d="M37.637 255.98v289.211c0 6.856 5.812 12.684 12.683 12.684h578.34c6.856 0 12.684-5.812 12.684-12.684v-289.21c0-6.856-5.813-12.684-12.684-12.684H50.324c-16.32 0-16.347 25.367 0 25.367h578.344l-12.684-12.684v289.211l12.684-12.68H50.32L63 545.192v-289.21c0-16.32-25.363-16.352-25.363 0m0 0"/></g><path fill="#fff" d="M415.297 373.969c-1.996-5.227-3.985-10.54-6.684-15.453-2.707-4.938-6.554-9.371-10.09-13.66-1.128-1.376-2.3-2.676-3.648-3.848-4.262-3.707-8.793-7.469-13.676-10.352-4.887-2.894-10.457-4.949-15.719-6.91a37.4 37.4 0 0 0-6.437-1.781c-6.012-1.082-12.297-2.121-18.445-2.324-6.438-.207-13.047 1.125-19.328 2.054-2.59.387-5.125.907-7.598 1.782-5.574 1.968-11.379 4.164-16.512 7.18-10.933 6.41-17.723 14.081-24.996 24.12a32 32 0 0 0-2.953 4.91c-2.445 5.133-4.914 10.493-6.563 15.965-1.16 3.871-1.52 7.907-2.054 11.899-.117.875-.149 1.742-.27 2.61a44 44 0 0 0-.969 9.413c.051 6.988 1.184 14.137 2.5 20.942 1.348 6.972 4.567 13.668 7.473 20.023 3.012 6.59 7.899 12.516 12.66 17.824 1.137 1.27 2.395 2.387 3.719 3.453 4.316 3.477 8.719 7.47 13.746 10.008 12.145 6.149 20.664 8.035 34.004 9.457 8.566.906 17.61-.55 25.93-2.183 7.644-1.508 15.351-4.809 21.965-8.778 4.726-2.832 9.148-6.496 13.289-10.035a33.4 33.4 0 0 0 3.832-3.86c9.129-10.8 17.05-23.206 19.242-37.48 1.144-7.425 2.426-14.578 1.687-22.035-.738-7.469-1.359-15.762-4.101-22.941Zm0 0"/><path fill="#211715" d="M427.523 370.598c-3.43-8.98-6.875-17.828-12.699-25.559-5.957-7.918-12.25-14.48-20.156-20.469-15.266-11.562-35.055-17.195-54.074-17.613-39.207-.86-73.133 22.434-87.672 58.356-13.797 34.085-4.676 81.246 23.812 105.476 14.399 12.246 30.063 19.606 48.825 22.195 19.761 2.727 40.289-.136 58.093-9.421 39.657-20.684 58.551-70.84 43.868-112.965-2.254-6.465-8.684-10.762-15.598-8.86-6.277 1.723-11.125 9.106-8.86 15.602 9.485 27.207 1.56 58.86-21.019 77.02-21.621 17.39-56.348 19.78-79.855 4.37-24.684-16.183-32.786-45.644-28.606-73.578 4.273-28.578 28.469-47.875 55.82-51.964 15.356-2.301 31.918.527 45.395 8.417 13.922 8.16 22.617 20.95 28.265 35.735 2.442 6.394 8.54 10.797 15.602 8.855 6.117-1.68 11.313-9.168 8.856-15.597Zm-299.757 24.308c-.426-1.113-.852-2.25-1.426-3.297-.578-1.05-1.403-2.004-2.156-2.918a7 7 0 0 0-.778-.82c-.906-.793-1.875-1.594-2.922-2.207-1.039-.621-2.23-1.059-3.355-1.476a8 8 0 0 0-1.375-.38c-1.281-.234-2.625-.453-3.934-.495-1.375-.043-2.785.238-4.129.437a9 9 0 0 0-1.62.379c-1.188.426-2.43.89-3.524 1.535-2.336 1.367-3.785 3.008-5.336 5.152a6.5 6.5 0 0 0-.629 1.047c-.523 1.094-1.055 2.239-1.402 3.407-.246.824-.32 1.687-.438 2.543-.027.183-.031.37-.058.554a9.5 9.5 0 0 0-.207 2.008c.011 1.496.253 3.02.535 4.473.285 1.488.972 2.918 1.593 4.273.645 1.406 1.688 2.676 2.707 3.805.243.27.512.508.793.734.918.742 1.86 1.598 2.934 2.137 2.594 1.308 4.41 1.719 7.258 2.02 1.828.195 3.758-.118 5.539-.465 1.633-.325 3.273-1.028 4.691-1.88 1.008-.6 1.953-1.382 2.836-2.14.297-.25.567-.527.82-.824 1.95-2.301 3.641-4.95 4.11-8 .246-1.586.52-3.113.36-4.703-.157-1.594-.29-3.368-.876-4.899Zm45.41 0c-.426-1.113-.852-2.25-1.426-3.297-.578-1.05-1.402-2.004-2.156-2.918a7 7 0 0 0-.778-.82c-.91-.793-1.875-1.594-2.921-2.207-1.04-.621-2.23-1.059-3.356-1.476a8 8 0 0 0-1.375-.38c-1.281-.234-2.625-.453-3.934-.495-1.375-.043-2.785.238-4.128.437a9 9 0 0 0-1.622.379c-1.187.426-2.43.89-3.523 1.535-2.336 1.367-3.785 3.008-5.336 5.152a6.5 6.5 0 0 0-.629 1.047c-.523 1.094-1.054 2.239-1.402 3.407-.246.824-.32 1.687-.438 2.543-.027.183-.03.37-.058.554a9.5 9.5 0 0 0-.207 2.008c.011 1.496.254 3.02.535 4.473.285 1.488.973 2.918 1.594 4.273.644 1.406 1.687 2.676 2.707 3.805.242.27.511.508.793.734.918.742 1.859 1.598 2.933 2.137 2.594 1.308 4.41 1.719 7.258 2.02 1.828.195 3.758-.118 5.54-.465 1.632-.325 3.273-1.028 4.69-1.88 1.008-.6 1.954-1.382 2.836-2.14.297-.25.567-.527.82-.824 1.95-2.301 3.641-4.95 4.11-8 .246-1.586.52-3.113.36-4.703-.157-1.594-.29-3.368-.875-4.899Zm45.41 0c-.426-1.113-.852-2.25-1.426-3.297-.578-1.05-1.402-2.004-2.156-2.918a7 7 0 0 0-.777-.82c-.91-.793-1.875-1.594-2.922-2.207-1.04-.621-2.23-1.059-3.356-1.476a8 8 0 0 0-1.375-.38c-1.281-.234-2.625-.453-3.933-.495-1.375-.043-2.786.238-4.13.437a9 9 0 0 0-1.62.379c-1.188.426-2.43.89-3.524 1.535-2.336 1.367-3.785 3.008-5.336 5.152a6.5 6.5 0 0 0-.629 1.047c-.523 1.094-1.054 2.239-1.402 3.407-.246.824-.32 1.687-.437 2.543-.028.183-.032.37-.06.554a9.5 9.5 0 0 0-.206 2.008c.012 1.496.254 3.02.535 4.473.285 1.488.973 2.918 1.594 4.273.644 1.406 1.687 2.676 2.707 3.805.242.27.512.508.793.734.918.742 1.86 1.598 2.933 2.137 2.594 1.308 4.41 1.719 7.258 2.02 1.828.195 3.758-.118 5.54-.465 1.632-.325 3.273-1.028 4.69-1.88 1.008-.6 1.954-1.382 2.837-2.14a7 7 0 0 0 .82-.824c1.95-2.301 3.64-4.95 4.11-8 .245-1.586.519-3.113.359-4.703-.157-1.594-.29-3.368-.875-4.899Zm337.156 30.16a62.4 62.4 0 0 1 8.113 6.606c4.915 4.758 9.192 9.96 12.735 15.504 8.164 12.824 12.289 27.262 12.633 41.762.246 10.75-7.672 19.421-17.11 19.421H469.16c-9.441 0-17.355-8.68-17.11-19.421.345-14.497 4.477-28.938 12.634-41.762 3.496-5.543 7.816-10.746 12.734-15.504a63.5 63.5 0 0 1 8.21-6.715"/><path fill="#211715" d="M549.344 436.02c10.918 7.703 19.402 19.957 23.566 32.57 1.871 5.676 8.164 24.402-.125 26.98-1.64.512-5.086.11-7.23.11H479.12c-3.098 0-6.621.476-9.687 0-7.918-1.227-4.196-15.563-2.688-21.535 3.762-14.915 12.64-29.235 25.285-38.235 5.574-3.965 8.227-11.066 4.547-17.355-3.223-5.508-11.738-8.54-17.351-4.551-15.403 10.969-26.852 25.863-33.735 43.469-5.883 15.05-10.207 35.953-.512 50.3 10.516 15.563 27.957 13.27 44.13 13.27h57.476c12.57 0 30.035 2.656 41.062-4.684 17.872-11.894 15.774-35.363 10.075-53.414-6.223-19.715-18.703-36.922-35.586-48.828-5.602-3.953-14.102-1.004-17.352 4.551-3.71 6.344-1.062 13.39 4.547 17.352ZM106.285 322.773h41.664c6.633 0 12.988-5.832 12.684-12.683-.309-6.848-5.574-12.684-12.684-12.684h-41.664c-6.629 0-12.984 5.836-12.68 12.684.305 6.851 5.575 12.683 12.68 12.683m0 0"/><path fill="#fff" d="M563.516 356.64c-4.536-8.23-11.598-15.972-19.707-19.968-7.102-3.496-11.512-4.797-19.364-5.637-5.136-.55-10.34.184-15.39 1.121-9.149 1.696-19.098 7.785-25.11 15.477-5.097 6.527-7.773 11.418-10.511 19.414-1.747 5.11-2.348 10.789-2.418 16.207 0 9.902 2.41 20.621 7.675 28.84 2.532 3.941 5.227 7.883 8.704 10.906 6.003 5.215 10.168 7.969 17.539 10.828 8.785 3.41 20.046 3.027 29.023.746 8.465-2.152 17.648-7.875 23.3-15.097 2.888-3.692 5.75-7.47 7.602-11.887 3.27-7.817 4.559-12.98 5.262-21.672.797-9.856-1.957-20.844-6.605-29.285Zm0 0"/><path fill="#211715" d="M574.465 350.234c-14.16-24.796-41.05-36-68.781-30.308-25.305 5.195-43.497 29.554-46.664 54.34-3.364 26.351 8.113 53.09 31.402 66.695 22.789 13.32 53.617 9.777 72.504-8.84 21.582-21.277 25.5-55.52 11.539-81.887-3.203-6.05-11.613-7.906-17.352-4.55-6.125 3.582-7.77 11.277-4.55 17.355 7.824 14.777 6.32 33.152-3.594 46.54-9.227 12.46-26.657 17.632-40.617 12.077-14.778-5.879-24.207-20.445-24.633-36.738-.414-15.652 7.793-32.793 22.98-38.977 7.899-3.21 18.008-3.093 26.387-.195 8.27 2.86 14.894 9.27 19.476 17.293 8.094 14.172 30.02 1.41 21.903-12.805m0 0"/><g clip-path="url(#c)"><g clip-path="url(#d)"><g clip-path="url(#e)" transform="translate(0 172)"><g clip-path="url(#f)"><g clip-path="url(#g)"><path fill="#fff" d="M0 .145h680.273v450H0Zm0 0"/></g></g></g></g></g><path fill="#7abee6" d="M499.148 178.027c-173.906 0-294.109 134.258-294.109 291.375 0 175.786 122.79 296.84 294.11 296.84 171.316 0 294.109-121.054 294.109-296.84 0-157.117-120.207-291.375-294.11-291.375m0 0"/><path fill="#74c66d" d="M542.203 293.535c.137-.207.27-.414.406-.629 6.887-10.91 5.352-24.566.348-35.941a39.6 39.6 0 0 0-4.059-7.074 39.8 39.8 0 0 0-11.949-10.973 40 40 0 0 0-7.394-3.438c-31.028-11.398-89.258-19.292-126.14-39.343-115.017 41.726-188.376 150.523-188.376 273.265q.001 2.514.031 5.004c8.578 1.676 24.758 9.617 30.211 13.805a112.2 112.2 0 0 1 24.512 27.625c7.105 10.625 12.227 22.14 18.57 33.18a35.1 35.1 0 0 0 9.79 11.574c12.148 8.617 30.183 1.164 37.05-10.86 7.375-12.91 1.313-29.164 9.383-41.726 3.367-5.238 8.855-8.453 14.008-11.68 5.27-3.297 10.293-7.035 15.222-10.832 8.73-6.734 18.004-14.832 22.715-25.015a122.3 122.3 0 0 0 7.73-23.82c1.442-6.18 1.762-16.532 8.169-19.985a15.2 15.2 0 0 1 3.438-1.277q.891-.212 1.808-.317.914-.1 1.832-.094.918.011 1.832.133a15 15 0 0 1 5.215 1.692q.81.435 1.554.968.75.533 1.43 1.153a15 15 0 0 1 3.313 4.367q.416.821.726 1.687a15.2 15.2 0 0 1 .813 3.575 13.3 13.3 0 0 0 1.308 5.464 13.3 13.3 0 0 0 3.422 4.461 12.1 12.1 0 0 0 3.48 1.723 12.2 12.2 0 0 0 3.848.527 12 12 0 0 0 3.817-.722 12 12 0 0 0 1.77-.809q.855-.48 1.616-1.086c7.086-5.246 8.606-14.117 8.848-22.402.223-6.887-.27-13.922 1.742-20.516a28.5 28.5 0 0 1 5.656-10.164 28.3 28.3 0 0 1 4.258-4.008 28 28 0 0 1 4.989-3.054c7.914-3.75 17.793-3.996 23.918-10.27 9.19-9.414 3.28-24.84 6.617-37.582.746-2.812 2.187-5.203 4.332-7.168a148 148 0 0 1 13.61-9.16c8.976-5.48 18.663-11.309 24.581-20.258m83.711-72.113a38 38 0 0 1 5.336-2.465 55.5 55.5 0 0 1 16.406-3.207c73.875 41.57 124.477 113.723 140.317 197.168-23.344-8.207-71.211-29.137-87.559-40.145-10.586-7.105-21.469-14.558-28.035-25.464-8.309-13.774-8.606-31.32-17.356-44.801-6.91-10.711-18.234-17.551-27.988-25.735-9.754-8.187-18.7-19.535-17.644-32.23.816-9.852 7.78-18.234 16.523-23.121m0 0"/><path fill="#211715" d="M647.695 209.887c-12.32.734-24.36 4.222-33.468 12.91a32 32 0 0 0-2.965 3.09 32.6 32.6 0 0 0-4.61 7.199 33 33 0 0 0-2.586 8.144q-.376 2.115-.476 4.258a33 33 0 0 0 .086 4.282 32 32 0 0 0 .64 4.234c2.61 11.316 10.946 20.695 19.692 27.871 8.55 7.016 18.71 13.16 25.12 22.39 6.54 9.415 8.384 20.9 11.88 31.598a63.5 63.5 0 0 0 7.738 16.29 63.4 63.4 0 0 0 11.984 13.476c14.106 11.945 30.344 20.473 46.961 28.32a628 628 0 0 0 58.704 24.645 5.87 5.87 0 0 0 3.414-.09 6 6 0 0 0 1.054-.469q.503-.282.942-.664a5.9 5.9 0 0 0 1.41-1.808q.26-.522.414-1.079t.195-1.136q.043-.58-.027-1.153a6 6 0 0 0-.254-1.125 6 6 0 0 0-.469-1.054 6 6 0 0 0-.664-.942 5.7 5.7 0 0 0-.836-.793 6 6 0 0 0-.976-.617 5.5 5.5 0 0 0-1.078-.414c-16.09-5.684-31.836-12.441-47.36-19.512a280.7 280.7 0 0 1-42.965-22.87c-8.78-6.02-17.515-12.727-22.722-22.231-5.149-9.387-6.703-20.262-10.293-30.254a62 62 0 0 0-7.59-14.715 62 62 0 0 0-11.211-12.191c-8.203-6.977-17.461-12.77-24.512-21.036-6.746-7.925-10.476-18.503-4.695-28.011 6.191-10.184 18.215-14.102 29.512-14.778 7.523-.453 7.578-12.218 0-11.765Zm0 0"/><path fill="#74c66d" d="M277.758 594.027a14 14 0 0 0-6.676-.246 9.05 9.05 0 0 0-4.41 2.106 9.6 9.6 0 0 0-2.2 3.98 9.5 9.5 0 0 0-.324 2.266q-.03 1.156.223 2.281a35 35 0 0 0 6.195 14.05 68.2 68.2 0 0 0 12.954 14.098c4.855 3.887 11.242 8.09 17.664 8.27q.563.06 1.132.047a9.2 9.2 0 0 0 3.313-.707 9 9 0 0 0 1.016-.508c.332-.187.644-.398.949-.629.3-.226.586-.476.86-.738a9.12 9.12 0 0 0 2.593-4.95 8.5 8.5 0 0 0 .121-1.128q.029-.57-.02-1.137a8 8 0 0 0-.16-1.121 9 9 0 0 0-.3-1.094 19.7 19.7 0 0 0-4.981-8.207c-2.363-2.715-4.8-5.367-7.262-8.004-4.601-4.922-8.53-10.836-13.832-15.058a19 19 0 0 0-6.855-3.57m222.832 1.827a11.4 11.4 0 0 0-3.438 2.665 11.4 11.4 0 0 0-2.199 3.757 9.3 9.3 0 0 0-.64 3.34 9.3 9.3 0 0 0 .593 3.348 10.15 10.15 0 0 0 4.774 4.879c4.875 2.601 10.703 3.187 16.011 4.426a204 204 0 0 0 25.735 4.187q2.582.446 5.148-.094a13.7 13.7 0 0 0 4.754-1.972c5.164-4.012 3.48-12.57.887-17.63-3.25-6.347-10.996-7.386-17.461-8.128-6.129-.7-12.297-.621-18.442-1a30.27 30.27 0 0 0-15.723 2.223m17.899-110.782a92.2 92.2 0 0 1-20.289 3.203c-6.226.473-15.117 1.45-19.59-4.086a10.9 10.9 0 0 1-1.441-3.023 10.9 10.9 0 0 1-.457-3.32 10.9 10.9 0 0 1 2.101-6.286c3.657-5.449 9.844-7.417 15.583-10a79.4 79.4 0 0 0 18.293-10.351c8.332-6.816 13.515-29.738 28.886-20.363 8.313 5.07 5.88 15.422 3.43 23.054a73.1 73.1 0 0 1-8.383 19.141c-4.598 6.703-10.586 9.695-18.133 12.031m-52.785 23.203a32.2 32.2 0 0 0 1.012-11.367 13 13 0 0 0-.215-2.285 13 13 0 0 0-.605-2.215 13.1 13.1 0 0 0-2.301-3.953 13 13 0 0 0-1.625-1.617 13.2 13.2 0 0 0-6.18-2.879 12.4 12.4 0 0 0-3.203-.203q-1.612.105-3.149.62a12.4 12.4 0 0 0-5.316 3.505c-2.734 3.676-2.48 8.73-1.527 12.965.949 4.238 2.625 9.41 6.09 12.21q.504.404 1.054.743.549.344 1.133.613.585.277 1.2.477c.406.132.824.246 1.241.328q.633.13 1.278.183a10.93 10.93 0 0 0 6.207-1.355q.561-.316 1.082-.695a10.5 10.5 0 0 0 1.887-1.75q.42-.488.777-1.028.356-.54.648-1.113.289-.574.512-1.184M445.129 721.32c-24.363-.191-45.192-17.136-47.395-42.484-1.441-16.57 12.16-30.691 27.309-35.047a31.4 31.4 0 0 1 5.789-1.27 31.3 31.3 0 0 1 5.922-.164q2.97.2 5.851.95a32 32 0 0 1 5.567 2.03c9.894 5.13 11.012 12.145 23.824 11.349 4.41-.274 9.559-.329 13.586-2.34 5.973-2.985 9.477-9.356 16.125-11.25a18.6 18.6 0 0 1 6.504-.387q3.282.38 6.242 1.856a45 45 0 0 1 11.453 7.39 44.9 44.9 0 0 1 8.723 10.477 41 41 0 0 1 4.418 12.105c.836 4.27.988 8.563.465 12.88a85 85 0 0 1-5.61 19.608 31.75 31.75 0 0 1-9.02 13.945 24.8 24.8 0 0 1-7.948 4.141 24.8 24.8 0 0 1-8.895 1.07c-7.73-.288-14.254-2.8-21.672-4.378-13.758-2.93-27.363-.371-41.238-.48M371.7 526.082a8.8 8.8 0 0 1 2.202-2.676 8.8 8.8 0 0 1 3.055-1.636 10 10 0 0 1 2.606-.149 10.03 10.03 0 0 1 4.878 1.711 10 10 0 0 1 1.942 1.742c3.87 4.11 5.906 10.27 7.351 15.606 1.91 6.875 2.336 13.836 1.27 20.89-1.133 6.766-8.875 11.41-15.195 7.809-6.489-3.7-8.52-14.836-9.664-21.48a47.8 47.8 0 0 1-.07-17.598 14 14 0 0 1 1.624-4.219m.672 79.301q1.334-3.885 1.227-7.98c-.403-12.528-13.13-15.317-23.203-11.954-9.223 3.078-18.137 9.184-22.301 18.192-3.434 7.398-2.758 15.976 5.285 19.851a32 32 0 0 0 8.86 2.29q4.597.51 9.148-.305a22.2 22.2 0 0 0 7.68-2.704 22.3 22.3 0 0 0 6.203-5.27 39.6 39.6 0 0 0 7.101-12.12m176.699-223.27q-2.62.57-4.976 1.86a18.5 18.5 0 0 0-4.246 3.195 18 18 0 0 0-1.711 2.02 18.14 18.14 0 0 0-3.465 9.867 18.2 18.2 0 0 0 .539 5.257q.327 1.291.836 2.516c4.945 8.117 14.52 9.695 24.265 8.543a13.6 13.6 0 0 0 2.313-.375 13.4 13.4 0 0 0 6.066-3.414 13.3 13.3 0 0 0 3.52-6.008q.31-1.137.414-2.308c.336-2.407.215-4.79-.352-7.149a19 19 0 0 0-2.945-6.527 19.56 19.56 0 0 0-8.7-6.863 20.97 20.97 0 0 0-11.558-.614m0 0"/><g clip-path="url(#h)"><path fill="#211715" d="M203.523 480.063a67.2 67.2 0 0 1 14.461 5.199 83 83 0 0 1 13.536 7.449c11.433 8.207 20.308 20.762 27.359 32.754 3.965 6.742 7.437 13.758 11.148 20.637 3.532 6.562 7.235 13.308 13.149 18.039 10.207 8.168 24.23 7.445 35.05.738a34.6 34.6 0 0 0 12.54-13.05c3.02-6.563 4.558-13.458 4.625-20.684.37-6.02.324-12.52 3.074-18.051 3.012-6.063 9.137-9.114 14.582-12.633 12.355-7.984 25.183-17.402 33.973-29.36 8.457-11.496 11.582-26.308 14.261-40.046.867-4.453 1.63-9.145 6.414-10.09a9.3 9.3 0 0 1 2.864-.059 9.24 9.24 0 0 1 5.105 2.441 9.2 9.2 0 0 1 1.754 2.262 26 26 0 0 1 1.734 7.153 18.3 18.3 0 0 0 1.875 5.02 18.2 18.2 0 0 0 3.243 4.265 17.9 17.9 0 0 0 4.668 3.015c.851.38 1.73.688 2.628.926q1.354.358 2.743.504a17.8 17.8 0 0 0 8.223-1.09q1.306-.503 2.515-1.199c13.695-7.598 13.043-24.254 13.504-37.71.226-6.602 1.523-12.99 6.125-17.977 4.168-4.532 9.383-6.375 15.148-8.024 6.371-1.836 13.067-3.941 17.719-8.96a28.2 28.2 0 0 0 5.02-8.524 28.3 28.3 0 0 0 1.796-9.727c.387-6.215-.476-12.55.414-18.734.09-1.27.38-2.496.86-3.676a12 12 0 0 1 1.957-3.23 52.6 52.6 0 0 1 9.312-6.465c11.692-7.41 24.985-14.38 31.825-27.047 7.027-13.024 4.918-28.922-1.438-41.774-11.16-22.55-38.637-26.945-60.707-32.437-24.969-6.211-50.305-11.832-74.262-21.422a155 155 0 0 1-15.933-7.441c-6.664-3.594-12.61 6.558-5.934 10.156 22.3 12.031 47.254 18.64 71.692 24.785 11.761 2.957 23.585 5.723 35.304 8.86 9.781 2.624 20.606 4.953 29.035 10.808 9.594 6.656 14.899 18.926 14.891 30.418 0 13.742-10.293 22.305-20.992 29.09-5.895 3.746-11.961 7.215-17.582 11.375-6.528 4.832-9.137 10.95-9.899 18.906-.941 9.856 3.227 24.828-7.422 30.578-5.277 2.852-11.535 3.59-17.066 5.883a34.8 34.8 0 0 0-8.504 5.035 34.8 34.8 0 0 0-6.75 7.219 38.9 38.9 0 0 0-4.691 10.125 39 39 0 0 0-1.64 11.035c-.31 6.477.331 13.113-1.345 19.45-1.187 4.484-4.543 10.511-10.02 10.046-5.827-.488-4.839-7.707-6.323-11.699a21 21 0 0 0-4.758-7.574 20 20 0 0 0-1.656-1.524 20 20 0 0 0-1.813-1.34 21 21 0 0 0-1.941-1.136 21 21 0 0 0-2.051-.93 21.7 21.7 0 0 0-4.344-1.172 22 22 0 0 0-2.238-.234q-1.125-.058-2.25.008-1.131.059-2.238.242-1.114.187-2.204.484-1.083.3-2.132.711-1.05.416-2.051.938c-5.156 2.875-7.73 8.507-9.043 14.015-1.41 5.926-2.285 11.89-3.945 17.774a67.7 67.7 0 0 1-8.465 20.156 70.2 70.2 0 0 1-13.703 14.098 181 181 0 0 1-18.68 13.609c-5.77 3.645-11.598 7.277-15.567 12.98-8.125 11.668-4.195 25.844-8.226 38.618a23 23 0 0 1-1.508 3.382 23.4 23.4 0 0 1-4.512 5.852 23.3 23.3 0 0 1-6.117 4.145 23.5 23.5 0 0 1-3.472 1.296q-1.79.509-3.637.73-1.846.217-3.703.145a17.6 17.6 0 0 1-3.762-.906 17.7 17.7 0 0 1-8.934-7.133 151 151 0 0 1-10.703-19.078 171.5 171.5 0 0 0-25.14-37.207 84 84 0 0 0-13.325-11.531 83.7 83.7 0 0 0-15.437-8.496 76 76 0 0 0-14.934-5.324c-7.39-1.547-10.539 9.789-3.129 11.343Zm0 0"/></g><path fill="#211715" d="M279.32 588.355c-5.93-1.44-13.218-.796-17.457 4.106-4.043 4.668-4.11 10.988-2.433 16.648 3.105 10.5 10.965 20.23 19.312 27.118 8.285 6.84 21.68 15.152 32.11 7.652q.887-.678 1.668-1.48.78-.797 1.437-1.704c.441-.601.832-1.23 1.184-1.89a15.5 15.5 0 0 0 1.488-4.188 15.6 15.6 0 0 0 .238-4.441 15.5 15.5 0 0 0-.363-2.2c-1.152-5.667-5.297-10.011-9.027-14.167-4.247-4.727-8.387-9.52-12.563-14.301a33.9 33.9 0 0 0-6.996-6.7 33.8 33.8 0 0 0-8.602-4.453c-7.273-2.16-10.382 9.192-3.128 11.344 7.214 2.14 11.828 10.02 16.523 15.383 3.055 3.488 6.316 6.785 9.328 10.313a16 16 0 0 1 2.504 3.636q.775 1.6.55 3.356c-.226 1.16-.292 1.535-1.363 2.12a5.8 5.8 0 0 1-3.293.434c-3.917-.754-7.433-2.379-10.539-4.882a57.2 57.2 0 0 1-15.796-16.891 30.3 30.3 0 0 1-2.961-6.016 13.8 13.8 0 0 1-1.043-5.375c-.059.703.047-.324.066-.402.152-.754.016-.328.211-.715.246-.469.145-.293 0-.133.559-.593.227-.37 1-.738q2.392-.749 4.813-.086c7.359 1.785 10.496-9.558 3.132-11.348m218.301 2.422a17.6 17.6 0 0 0-3.777 2.758 17.5 17.5 0 0 0-2.914 3.66 17.5 17.5 0 0 0-2.5 8.926c.093 7.277 5.636 11.957 11.894 14.418a111 111 0 0 0 18.047 4.336c6.723 1.395 13.524 2.406 20.34 3.176 6.059.683 12.629.578 17.309-3.965a17.3 17.3 0 0 0 2.43-3.379 17 17 0 0 0 1.554-3.863 17.4 17.4 0 0 0 .184-8.266 23 23 0 0 0-1.997-6.976 23 23 0 0 0-4.062-6.012 25.4 25.4 0 0 0-6.594-4.172 25.4 25.4 0 0 0-7.547-1.984 207 207 0 0 0-21.52-1.567c-7.257-.347-14.179-.351-20.859 2.91a6.3 6.3 0 0 0-.925.684q-.427.386-.778.848a6 6 0 0 0-.996 2.062 6 6 0 0 0-.183 1.137 6.1 6.1 0 0 0 .3 2.27q.187.546.473 1.046.3.491.688.918a6 6 0 0 0 2.91 1.758q.56.148 1.132.184c.387.027.766.015 1.149-.036a6 6 0 0 0 1.121-.253 5.7 5.7 0 0 0 1.047-.461c3.824-1.485 7.765-1.977 11.836-1.47 5.004.247 10.027.337 15.027.669 5.512.367 14.07.367 16.852 5.883a15.36 15.36 0 0 1 1.472 7.664q-.051 1.297-1.07 2.101a6.5 6.5 0 0 1-4.082.91c-9.629-.062-19.363-2.695-28.719-4.609-4.164-.852-9.695-1.227-13.218-3.86-3.06-2.284-.676-5.843 1.898-7.288 6.617-3.704.695-13.868-5.922-10.157m0 0"/><g clip-path="url(#i)"><path fill="#211715" d="M499.148 172.145a318 318 0 0 0-50.16 3.812 318 318 0 0 0-48.93 11.668 288 288 0 0 0-21.699 8.055 289.5 289.5 0 0 0-41.117 21.18 289 289 0 0 0-19.156 12.988 288.6 288.6 0 0 0-34.898 30.36 288 288 0 0 0-29.606 35.53 295 295 0 0 0-23.191 38.926 294.4 294.4 0 0 0-16.965 42.012 306.3 306.3 0 0 0-14.27 92.312 344.6 344.6 0 0 0 13.067 96.035 292 292 0 0 0 15.547 41.98 292 292 0 0 0 21.77 39.118 272.7 272.7 0 0 0 58.086 63.066 286.4 286.4 0 0 0 76.91 43.063 320.9 320.9 0 0 0 90.987 19.094 347 347 0 0 0 48.403-.055 347 347 0 0 0 47.922-6.781 297.4 297.4 0 0 0 83.758-31.691 273.5 273.5 0 0 0 35.68-24.083 274 274 0 0 0 31.476-29.363 278.6 278.6 0 0 0 26.832-34.527 278.5 278.5 0 0 0 21.117-38.29 317.5 317.5 0 0 0 15.992-44.019 318 318 0 0 0 9.363-45.887 334 334 0 0 0 3.059-48.441 334 334 0 0 0-3.988-48.371q-3.646-22.668-10.707-44.516a299 299 0 0 0-17.367-42.367 290 290 0 0 0-23.418-38.765 290.5 290.5 0 0 0-29.145-34.665 287 287 0 0 0-34.691-30.02 287 287 0 0 0-39.028-24.124 299 299 0 0 0-44.62-18.414 299 299 0 0 0-46.997-11.012 336 336 0 0 0-50.016-3.808c-7.574 0-7.586 11.761 0 11.761a307 307 0 0 1 48.375 3.688 307 307 0 0 1 47.192 11.246 280 280 0 0 1 41.531 17.441 280.4 280.4 0 0 1 38.207 23.856 274 274 0 0 1 32.613 28.543 274 274 0 0 1 27.715 33.316 284.5 284.5 0 0 1 22.442 37.594 285 285 0 0 1 16.422 40.59 295 295 0 0 1 10.289 44.078 295.4 295.4 0 0 1 3.437 45.133 332 332 0 0 1-3.066 46.691 332 332 0 0 1-9.582 45.797 282 282 0 0 1-35.922 77.977 263 263 0 0 1-25.688 32.605 263 263 0 0 1-30.488 28.164 269 269 0 0 1-34.781 23.094 269 269 0 0 1-37.934 17.445 310 310 0 0 1-43.113 12.387 310 310 0 0 1-44.45 6.047 336 336 0 0 1-46.609.004 335 335 0 0 1-46.156-6.45 285.5 285.5 0 0 1-41.465-12.117 286 286 0 0 1-39.172-18.203 263 263 0 0 1-34.46-23.195 263 263 0 0 1-30.387-28.32 269 269 0 0 1-25.868-33.368 269 269 0 0 1-20.335-36.996 302.1 302.1 0 0 1-23.961-84.726 321 321 0 0 1-3.118-46.856 321 321 0 0 1 3.743-46.808 289.7 289.7 0 0 1 27.015-84.016 280.4 280.4 0 0 1 22.524-37.32 280 280 0 0 1 28.027-33.383 277.4 277.4 0 0 1 70.98-52.125 290 290 0 0 1 43.012-17.696 290 290 0 0 1 45.29-10.597 315.5 315.5 0 0 1 47.741-3.52c7.567 0 7.582-11.761 0-11.761m0 0"/></g><path fill="#211715" d="M516.922 479.402a98 98 0 0 1-22.55 3.274c-3.34.187-11.142.953-11.763-3.813-.77-5.918 7.262-8.968 11.454-10.781a99 99 0 0 0 19.93-10.488 38.3 38.3 0 0 0 9.648-10.785 55 55 0 0 1 7.351-10.329c.336-.324.68-.644 1.043-.937.762-.625-1.09.602.332-.207q.668-.416 1.383-.75c-1.012.418-.156.117.055.059 1.59-.45-1.18.011.504-.118-.047 0 1.68.078.886-.015.832.191 1.637.476 2.403.851 4.382 2.36 4.316 6.555 3.355 11.067a73 73 0 0 1-7.75 20.988c-3.754 6.508-9.265 9.777-16.285 11.992-7.191 2.277-4.121 13.637 3.129 11.348a39.1 39.1 0 0 0 11.504-5.098 39 39 0 0 0 9.297-8.476c5.218-7.02 8.195-15.883 10.586-24.223 2.004-6.996 3.12-15.441-1.25-21.836a20 20 0 0 0-1.711-2.156 18.8 18.8 0 0 0-4.27-3.453q-1.184-.706-2.46-1.227a18 18 0 0 0-2.618-.855 18 18 0 0 0-2.715-.465 18.5 18.5 0 0 0-2.75-.067 18.4 18.4 0 0 0-2.73.336c-5.825 1.469-9.895 6.29-13.172 10.996-1.621 2.336-3.074 4.778-4.621 7.16a21.2 21.2 0 0 1-3.883 5.024c-11.68 10.984-36.426 11.191-38.348 30.656-1.097 11.067 8.766 16.938 18.492 17.434q6.69.124 13.329-.719a90 90 0 0 0 17.324-3.027c7.238-2.164 4.156-13.524-3.13-11.36m-45.546 30.442a36 36 0 0 0 1.203-13.344 20.7 20.7 0 0 0-1.328-6.23 20.7 20.7 0 0 0-3.156-5.536 19.4 19.4 0 0 0-2.059-2.109 19.3 19.3 0 0 0-4.969-3.148 19.4 19.4 0 0 0-2.785-.965 19.2 19.2 0 0 0-8.773-.207c-.965.207-1.91.48-2.828.832a15.93 15.93 0 0 0-8.176 6.7 16 16 0 0 0-1.508 3.249 24.3 24.3 0 0 0-.95 6.441 24.4 24.4 0 0 0 .782 6.461c1.649 7.864 5.39 15.668 13.438 18.504q3.124.994 6.394.758c2.18-.156 4.25-.71 6.219-1.664a16.3 16.3 0 0 0 5.246-4 16.3 16.3 0 0 0 3.25-5.742 5.86 5.86 0 0 0-.102-3.41 6 6 0 0 0-.468-1.051 5.7 5.7 0 0 0-1.496-1.734 5.8 5.8 0 0 0-2.043-1.04 6 6 0 0 0-1.133-.171 6 6 0 0 0-1.145.046 6.1 6.1 0 0 0-2.16.735 6.1 6.1 0 0 0-1.738 1.48 6 6 0 0 0-1.059 2.02c-.441 1.222.68-1.153.024-.055-.121.207-.223.426-.344.629a4.6 4.6 0 0 0-.387.594c-.078-.38.88-1 .047-.098-.246.27-.883.633-1.004.953l.653-.492a11 11 0 0 1-.57.387c-.29.183-.595.332-.891.508-.489.289-.551-.055.472-.172a5.4 5.4 0 0 0-.808.285q-.762.124-1.5.36c.96-.49 1.14-.075.375-.079-.29 0-.575.027-.86.02-.23 0-.46-.028-.691-.032-1.184-.039 1.258.309.191 0a8 8 0 0 0-1.675-.504c.734-.054 1.015.508.43.153a15 15 0 0 0-.786-.446c-.555-.289-.555-.738.137.172a6 6 0 0 0-.61-.539c-.246-.246-.492-.488-.707-.734-.98-1.11.352.715-.222-.297-.278-.488-.602-.96-.871-1.469-.204-.383-.38-.773-.57-1.16-.415-.836.171.149.081.203.032-.02-1.195-3.656-1.3-4.062a43 43 0 0 1-.473-1.992q-.093-.435-.168-.868c-.016-.082-.188-1.523-.098-.55.09.976-.031-.5-.039-.57a23 23 0 0 1-.043-.907c-.015-.379 0-.758 0-1.133 0-.183.11-1.719.02-.793-.094.98.105-.453.125-.543q.097-.434.23-.863c.035-.121.621-1.305.176-.543-.473.813.285-.43.316-.488.536-1.067-.148.062-.168.125.07-.242.493-.547.676-.719.668-.64.512 0-.117.035q.543-.27 1.027-.633.344-.228.735-.363l-.653.281q.385-.147.782-.265c.527-.16 1.062-.266 1.601-.387 1.356-.309-1.316 0 .063 0 .27 0 .543-.027.812-.027.27 0 .531 0 .797.011.266.016.524.036.785.063-.863-.13-1.062-.149-.594-.067.594.157 1.192.262 1.778.457l.379.133c.488.192.488.192.027 0l-.344-.136c.246.109.465.23.696.355q.337.185.664.395c.113.07 1.101.832.34.207-.762-.625.195.191.28.273q.416.392.802.813.264.273.488.582-.791-1.044-.246-.27l.21.32q.304.489.567 1l.172.344q.395.867-.137-.34.407.903.567 1.875l.082.39q.139.78.027 0c-.07-.523-.062-.51 0 .017q.039.405.055.812a55 55 0 0 1 .023 5.238c-.02.422-.047.84-.086 1.262-.02.258-.34 1.762-.035.43-.219.98-.398 1.925-.707 2.879q-.147.557-.187 1.132-.036.58.035 1.153.075.573.258 1.12.18.55.468 1.052c.192.336.41.648.664.941q.376.44.828.797a6 6 0 0 0 2.043 1.039q.557.141 1.13.172a6 6 0 0 0 1.14-.04q.574-.074 1.117-.26a6 6 0 0 0 1.043-.462 6 6 0 0 0 .938-.656 6 6 0 0 0 .796-.817q.36-.448.63-.957c.175-.34.324-.691.433-1.054m-26.246 205.594c-19.805-.317-37.156-13.27-41.004-33.043a28 28 0 0 1-.445-3.754 26.8 26.8 0 0 1 .703-7.516 26.8 26.8 0 0 1 4.84-10.18 27 27 0 0 1 5.39-5.285c8.418-6.773 21.473-10.297 31.395-4.805 4.078 2.258 7.16 5.653 11.07 8.204a25.5 25.5 0 0 0 7.656 3.011q4.072.89 8.22.45c6.55-.356 13.038-.954 18.519-4.903 3.953-2.86 7.687-8.254 12.773-9.07 5.547-.895 11.399 2.855 15.613 6.035a35 35 0 0 1 6.414 6.098 35.2 35.2 0 0 1 4.7 7.504c5.652 12.683 1.82 25.488-2.914 37.742-2.25 5.828-5.957 11.445-12.211 13.367-6.805 2.094-13.672.445-20.364-1.297a95 95 0 0 0-24.406-3.48c-8.66 0-17.289.953-25.95.93-7.57-.02-7.581 11.745 0 11.765 8.661.023 17.29-.922 25.95-.93a93.3 93.3 0 0 1 23.39 3.602 47.8 47.8 0 0 0 11.262 1.992 48 48 0 0 0 11.41-.734 29.2 29.2 0 0 0 10.105-4.664 29 29 0 0 0 4.208-3.684 29 29 0 0 0 3.43-4.414 76.2 76.2 0 0 0 8.73-21.613 52 52 0 0 0 1.918-11.575 52 52 0 0 0-.715-11.71 47 47 0 0 0-1.421-5.36 47 47 0 0 0-2.04-5.16 48 48 0 0 0-2.625-4.887 47.6 47.6 0 0 0-6.867-8.691 48 48 0 0 0-4.144-3.688 47 47 0 0 0-4.547-3.175 47 47 0 0 0-4.887-2.63c-7.012-3.347-14.828-4.538-22-.91-5.242 2.649-8.644 8.254-14.058 10.454a30.2 30.2 0 0 1-9.754 1.355c-2.66.305-5.254 0-7.778-.906-4.129-2.004-7.562-6.13-11.984-8.742-24.672-14.578-60.68 6.68-60.961 35.011q.059 5.185 1.164 10.254a50.8 50.8 0 0 0 3.211 9.805 50.8 50.8 0 0 0 11.965 16.687 56 56 0 0 0 8.12 6.063 56 56 0 0 0 9.087 4.492 55.5 55.5 0 0 0 9.746 2.781 55.3 55.3 0 0 0 10.086.973c7.57.117 7.574-11.648 0-11.77M376.77 529.05a3.8 3.8 0 0 1 1.742-1.609c-.36.079.558-.046.625-.035a3.67 3.67 0 0 1 1.816.75 15.54 15.54 0 0 1 4.79 6.903 49.5 49.5 0 0 1 3.265 11.226c.644 3.871.832 7.766.555 11.68a17.2 17.2 0 0 1-.637 3.695c.203-.492-.227.399-.223.39q-.29.532-.652 1.016c.625-.793-1.262 1.118-.41.43a4.18 4.18 0 0 1-2.899 1.297c1.168-.191-1.144-.086-.613-.023.652.078-.574-.145-.711-.188-.938-.316.574.336-.356-.125-.32-.16-1.558-1.125-.875-.52-.222-.195-1.246-1.261-1.078-1.054a23 23 0 0 1-2-3.496 10 10 0 0 1-.578-1.508 43 43 0 0 1-.586-1.817c-.48-1.59-.87-3.207-1.226-4.832a66 66 0 0 1-1.469-10c-.223-3.921-.41-8.69 1.516-12.187 3.66-6.633-6.496-12.574-10.16-5.938-5.122 9.29-3.329 21.34-1.223 31.254 1.781 8.407 5.262 17.996 14.015 21.254 10.004 3.719 20.118-4.168 21.508-14.066q1.048-8.31-.23-16.582a59.3 59.3 0 0 0-4.79-15.875 22.2 22.2 0 0 0-4.969-7.707 22.3 22.3 0 0 0-3.562-2.926 22.5 22.5 0 0 0-4.093-2.125 14.5 14.5 0 0 0-2.375-.504 15 15 0 0 0-2.426-.094 14.4 14.4 0 0 0-4.727 1.04q-1.132.456-2.164 1.101-1.036.645-1.949 1.453a14 14 0 0 0-1.672 1.762q-.763.95-1.351 2.015a6 6 0 0 0-.485 1.047 5.9 5.9 0 0 0-.308 2.278c.023.383.082.765.18 1.136q.145.562.402 1.082a5.8 5.8 0 0 0 1.386 1.829q.435.386.934.68c.332.195.684.355 1.047.48q.55.188 1.125.27c.379.05.766.066 1.152.042a5.95 5.95 0 0 0 3.203-1.187 5.9 5.9 0 0 0 1.524-1.719Zm1.273 77.895a24.6 24.6 0 0 0 1.418-9.34 24.7 24.7 0 0 0-2.207-9.187 18.7 18.7 0 0 0-4.625-5.563 18.7 18.7 0 0 0-6.383-3.406c-9.805-3.336-21.078.531-29.351 5.985-9.13 6.015-17.63 16.46-16.575 28.066.106 1.418.375 2.8.801 4.156a18.4 18.4 0 0 0 1.723 3.867 18.5 18.5 0 0 0 2.562 3.372 18.3 18.3 0 0 0 3.262 2.695 31.9 31.9 0 0 0 8.89 3.484q4.712 1.073 9.528.711a31.2 31.2 0 0 0 10.016-1.82 31.1 31.1 0 0 0 8.906-4.934 41.4 41.4 0 0 0 7.219-8.242 41.3 41.3 0 0 0 4.816-9.844q.154-.556.195-1.136a5.86 5.86 0 0 0-.75-3.332 6 6 0 0 0-1.5-1.738 5.884 5.884 0 0 0-9.289 3.077c-2.86 8.13-8.824 14.637-16.894 15.977a37 37 0 0 1-5.72.227 23.5 23.5 0 0 1-6.522-1.16 8.38 8.38 0 0 1-4.473-2.891c.598.75-.094-.223-.215-.43-.121-.203-.629-1.316-.246-.351-.203-.516-.309-1.063-.488-1.59-.063-.188-.2-1.145-.067-.098a12 12 0 0 1-.078-1.133c-.012-.492 0-.96.027-1.441 0-.266.22-1.473.036-.492q.214-1.189.57-2.348c.148-.488.316-.98.488-1.453.145-.38.149-.387.012-.035q.217-.469.457-.926a25.6 25.6 0 0 1 7.566-8.945 39.2 39.2 0 0 1 10.133-5.391 28 28 0 0 1 2.723-.82c.347-.082.703-.16 1.058-.23-.046 0 1.7-.27.82-.157-.878.113.872-.067.825-.063q.531-.035 1.07-.046c.883-.02 1.758.03 2.637.09 1.644.109-.734-.169.23.042.493.106.997.203 1.489.34.402.113.793.246 1.191.375 1.152.352-.695-.492.406.184.407.246 2.176 1.469 1.227.668.324.281 1.809 1.922 1.066.918.297.406.52.851.801 1.261.649.946-.125-.734.246.489.106.351.223.691.313 1.047.02.074.324 1.793.199.718a17.6 17.6 0 0 1-.926 7.657 5.87 5.87 0 0 0 .09 3.414q.182.55.465 1.054a5.9 5.9 0 0 0 1.504 1.735 5.8 5.8 0 0 0 2.05 1.031q.557.154 1.137.195a5.86 5.86 0 0 0 3.332-.75q.503-.285.942-.664t.797-.836q.353-.456.613-.976c.176-.344.312-.703.418-1.074Zm169.465-230.504q-1.867.453-3.64 1.192a24.4 24.4 0 0 0-6.516 3.992 24.64 24.64 0 0 0-6.72 9.207 24.5 24.5 0 0 0-1.816 7.422 19.4 19.4 0 0 0-.023 3.871q.175 1.938.73 3.805a19.6 19.6 0 0 0 1.457 3.586 19.5 19.5 0 0 0 2.13 3.234 23.6 23.6 0 0 0 4.976 4.414 23.5 23.5 0 0 0 6.004 2.856 35 35 0 0 0 12.855 1.52 25 25 0 0 0 6.727-.86 24.7 24.7 0 0 0 6.246-2.633c8.43-5.652 10.71-16.883 7.223-26.149a24.4 24.4 0 0 0-1.957-4.14q-.585-.988-1.258-1.918a25 25 0 0 0-3.02-3.442 24.4 24.4 0 0 0-3.597-2.828q-.966-.626-1.985-1.152a24 24 0 0 0-2.078-.965 24 24 0 0 0-2.16-.765 24.5 24.5 0 0 0-6.773-1.066 25 25 0 0 0-2.29.066 25 25 0 0 0-4.515.769 5.9 5.9 0 0 0-2.043 1.04 5.5 5.5 0 0 0-.832.792q-.376.439-.664.941a6.5 6.5 0 0 0-.469 1.051 6 6 0 0 0-.254 1.125 5.9 5.9 0 0 0 .156 2.285q.166.553.43 1.063c.18.34.387.66.629.96q.358.449.793.825.438.375.941.656.497.287 1.047.47.545.185 1.113.26c.383.052.762.067 1.149.048a6 6 0 0 0 1.133-.172 7.2 7.2 0 0 1 2-.29q1.476-.074 2.941.044c.09 0 1.125.18.367.043.422.078.848.164 1.266.265.52.133 1.023.301 1.539.453.703.207-.516-.336.438.16a19 19 0 0 1 2.375 1.43c-.836-.605.796.735.953.88a26 26 0 0 1 1.562 1.648c-.094-.106 1.043 1.343.625.753-.21-.292.563.91.688 1.125.191.344.375.692.543 1.047.421.918-.278-1.191.164.493.195.761.422 1.511.582 2.289.246 1.175.074.488.043.21.054.493.086 1.012.101 1.516.035 1.031-.09 2.063-.07 3.09.023 1.031.344-1.191-.035.32-.082.328-.145.66-.246.993s-.22.628-.305.949c.277-1.008.184-.364.016-.067-.172.297-.297.563-.465.836 0 .02-.89 1.278-.344.567.547-.715-.43.445-.45.465-.265.277-.605.507-.847.796-.515.618 1.09-.625-.101.07-.27.157-.524.34-.793.489-.364.21-1.91.824-.723.414-.684.246-1.363.422-2.059.613-.32.094-1.437.282-.109.082-.55.082-1.121.121-1.68.172a43 43 0 0 1-4.703.153c-.812-.024-1.613-.098-2.426-.145-.242-.016-1.152-.164-.011.016a29 29 0 0 1-3.535-.766 28 28 0 0 1-.965-.312s-1.489-.637-.7-.258c.786.375-.66-.356-.648-.348q-.435-.234-.863-.492c-.285-.172-.559-.36-.836-.535-1.29-.84.734.75-.387-.309-.492-.46-.965-.953-1.45-1.43-1.132-1.113.337.547-.222-.242-.21-.293-.406-.593-.601-.894-.489-.758.246 1.156-.168-.38-.098-.355-.223-.698-.317-1.058-.09-.36-.144-.719-.242-1.074.297 1.125-.031-.355-.047-.605-.035-.91-.012-1.817.078-2.723-.093 1.082-.023.176.035-.055.133-.527.23-1.062.383-1.59.102-.347.23-.687.332-1.035.371-1.27-.312.473.246-.605.414-.805.88-1.563 1.344-2.34.848-1.422-.418.437.207-.309.285-.34.578-.672.89-.98q.519-.533 1.083-1.02.469-.392-.024 0c.243-.175.489-.343.735-.492.332-.215.664-.418 1.011-.613.211-.117 1.512-.758 1.153-.606-.57.246.558-.195.68-.246a23 23 0 0 1 1.988-.562q.554-.164 1.07-.422.517-.264.969-.621.457-.357.832-.797a5.9 5.9 0 0 0 1.133-1.992q.182-.547.254-1.121c.05-.38.062-.766.035-1.149a6 6 0 0 0-.184-1.137 6.1 6.1 0 0 0-1.05-2.027 5.7 5.7 0 0 0-.797-.828 6 6 0 0 0-.938-.664 6 6 0 0 0-1.047-.469 6 6 0 0 0-1.12-.262 5.9 5.9 0 0 0-2.282.13m0 0"/></svg>